<svg version="1.1" viewBox="260.0 97.0 438.0 124.0" fill="none" stroke="none" stroke-linecap="square" stroke-miterlimit="10" xmlns:xlink="http://www.w3.org/1999/xlink" xmlns="http://www.w3.org/2000/svg"><g><path fill="#ffffff" d="m285.2844 143.70004q-5.765625 0 -10.21875 -1.71875q-4.4375 -1.734375 -7.515625 -4.875q-3.0625 -3.140625 -4.640625 -7.421875q-1.5625 -4.2812424 -1.5625 -9.343742q0 -5.125 1.75 -9.375q1.765625 -4.265625 5.09375 -7.390625q3.328125 -3.140625 7.90625 -4.859375q4.578125 -1.734375 10.203125 -1.734375q3.90625 0 7.265625 0.96875q3.359375 0.953125 6.078125 2.59375q2.71875 1.625 4.703125 3.671875l-8.1875 8.703125q-1.28125 -1.21875 -2.75 -2.140625q-1.46875 -0.9375 -3.265625 -1.46875q-1.796875 -0.546875 -4.03125 -0.546875q-2.296875 0 -4.21875 0.859375q-1.921875 0.859375 -3.328125 2.40625q-1.40625 1.53125 -2.21875 3.671875q-0.796875 2.140625 -0.796875 4.640625q0 2.5 0.828125 4.640625q0.84375 2.140625 2.3125 3.6874924q1.46875 1.53125 3.515625 2.390625q2.046875 0.859375 4.484375 0.859375q1.65625 0 3.03125 -0.53125q1.375 -0.546875 2.359375 -1.46875q1.0 -0.9375 1.578125 -2.2499924q0.578125 -1.3125 0.578125 -2.84375l0 -1.859375l1.796875 3.0625l-11.390625 0l0 -9.71875l22.015625 0q0.0625 0.703125 0.15625 2.3125q0.09375 1.59375 0.125 3.15625q0.03125 1.5625 0.03125 2.140625q0 4.2968674 -1.609375 7.9531174q-1.59375 3.640625 -4.5 6.265625q-2.90625 2.625 -6.875 4.09375q-3.96875 1.46875 -8.703125 1.46875zm22.330658 -0.640625l17.984375 -44.796867l10.875 0l17.859344 44.796867l-13.6874695 0l-7.171875 -19.578117q-0.703125 -1.984375 -1.21875 -3.390625q-0.515625 -1.421875 -0.90625 -2.65625q-0.375 -1.25 -0.765625 -2.6875q-0.375 -1.453125 -0.765625 -3.4375l2.1875 0q-0.390625 1.984375 -0.78125 3.4375q-0.375 1.4375 -0.796875 2.6875q-0.40625 1.234375 -0.953125 2.65625q-0.546875 1.40625 -1.25 3.390625l-7.171875 19.578117l-13.4375 0zm8.96875 -6.65625l4.03125 -9.406242l20.796875 0l3.6405945 9.406242l-28.46872 0zm41.597412 6.65625l0 -44.796867l11.90625 0l16.3125 26.5625l-9.65625 -0.0625l16.5 -26.5l11.53125 0l0 44.796867l-13.3125 0l0 -10.6875q0 -5.7656174 0.28125 -10.359367q0.28125 -4.609375 1.0 -9.15625l1.53125 4.03125l-10.8125 16.765617l-4.234375 0l-10.625 -16.765617l1.609375 -4.03125q0.703125 4.28125 0.984375 8.796875q0.296875 4.515625 0.296875 10.718742l0 10.6875l-13.3125 0zm56.83191 0l0 -44.796867l33.46875 0l0 11.203125l-20.21875 0l0 22.390617l21.375 0l0 11.203125l-34.625 0zm6.59375 -17.406242l0 -10.5l24.5 0l0 10.5l-24.5 0zm74.23001 18.046867q-5.046875 0 -8.921875 -1.109375q-3.875 -1.125 -6.796875 -3.171875q-2.90625 -2.0625 -5.203125 -4.8125l8.0 -8.953117q3.203125 4.0937424 6.6875 5.4062424q3.484375 1.3125 6.5625 1.3125q1.21875 0 2.171875 -0.21875q0.953125 -0.234375 1.46875 -0.734375q0.515625 -0.515625 0.515625 -1.421875q0 -0.828125 -0.546875 -1.40625q-0.546875 -0.578125 -1.4375 -0.9843674q-0.890625 -0.421875 -1.953125 -0.703125q-1.0625 -0.296875 -2.0625 -0.484375q-0.984375 -0.1875 -1.75 -0.390625q-3.828125 -0.890625 -6.71875 -2.171875q-2.875 -1.28125 -4.796875 -3.0625q-1.921875 -1.796875 -2.859375 -4.09375q-0.921875 -2.3125 -0.921875 -5.1875q0 -3.265625 1.5 -5.953125q1.515625 -2.6875 4.03125 -4.609375q2.53125 -1.921875 5.765625 -2.9375q3.234375 -1.03125 6.6875 -1.03125q5.0625 0 8.453125 0.9375q3.390625 0.921875 5.6875 2.65625q2.3125 1.71875 3.9687805 4.015625l-8.0625305 7.75q-1.40625 -1.34375 -2.9375 -2.203125q-1.53125 -0.875 -3.171875 -1.28125q-1.625 -0.421875 -3.234375 -0.421875q-1.46875 0 -2.5 0.234375q-1.015625 0.21875 -1.59375 0.703125q-0.578125 0.46875 -0.578125 1.296875q0 0.84375 0.734375 1.390625q0.75 0.53125 1.859375 0.921875q1.125 0.375 2.234375 0.609375q1.125 0.21875 1.890625 0.34375q3.53125 0.640625 6.46875 1.765625q2.953125 1.125 5.15625 2.828125q2.203125 1.6875 3.3906555 4.21875q1.1875 2.515625 1.1875 5.9687424q0 4.9375 -2.4687805 8.265625q-2.46875 3.328125 -6.625 5.03125q-4.15625 1.6875 -9.28125 1.6875zm35.97708 -0.640625l0 -33.031242l-13.828125 0l0 -11.765625l41.859375 0l0 11.765625l-14.21875 0l0 33.031242l-13.8125 0zm54.77594 0.640625q-5.3125 0 -9.734375 -1.71875q-4.40625 -1.734375 -7.671875 -4.875q-3.265625 -3.140625 -5.03125 -7.421875q-1.75 -4.2812424 -1.75 -9.343742q0 -5.125 1.75 -9.375q1.765625 -4.265625 5.03125 -7.390625q3.265625 -3.140625 7.671875 -4.859375q4.421875 -1.734375 9.671875 -1.734375q5.3125 0 9.6875 1.734375q4.390625 1.71875 7.65625 4.859375q3.265625 3.125 5.015625 7.390625q1.765625 4.25 1.765625 9.3125q0 5.125 -1.765625 9.406242q-1.75 4.28125 -5.015625 7.421875q-3.265625 3.140625 -7.65625 4.875q-4.375 1.71875 -9.625 1.71875zm-0.0625 -12.796875q2.171875 0 4.0 -0.765625q1.828125 -0.78125 3.203125 -2.2187424q1.375 -1.4375 2.109375 -3.359375q0.734375 -1.921875 0.734375 -4.21875q0 -2.3125 -0.734375 -4.21875q-0.734375 -1.921875 -2.109375 -3.359375q-1.375 -1.453125 -3.203125 -2.21875q-1.828125 -0.765625 -4.0 -0.765625q-2.171875 0 -4.0 0.765625q-1.828125 0.765625 -3.203125 2.21875q-1.375 1.4375 -2.109375 3.359375q-0.734375 1.90625 -0.734375 4.21875q0 2.296875 0.734375 4.21875q0.734375 1.921875 2.109375 3.359375q1.375 1.4374924 3.203125 2.2187424q1.828125 0.765625 4.0 0.765625zm31.813416 12.15625l0 -44.796867l20.984375 0q4.671875 0 8.3125 1.859375q3.65625 1.84375 5.703125 5.046875q2.046875 3.203125 2.046875 7.359375q0 4.671875 -2.046875 8.203125q-2.046875 3.515625 -5.703125 5.46875q-3.640625 1.9531174 -8.3125 1.9531174l-8.0625 0l0 14.90625l-12.921875 0zm23.484375 0l-11.390625 -20.218742l14.140625 -1.609375l12.671875 21.828117l-15.421875 0zm-10.5625 -24.515617l5.890625 0q1.59375 0 2.640625 -0.609375q1.0625 -0.609375 1.609375 -1.6875q0.546875 -1.09375 0.546875 -2.625q0 -1.40625 -0.546875 -2.390625q-0.546875 -1.0 -1.671875 -1.546875q-1.109375 -0.546875 -2.828125 -0.546875l-5.640625 0l0 9.40625zm32.32605 24.515617l0 -44.796867l33.46875 0l0 11.203125l-20.21875 0l0 22.390617l21.375 0l0 11.203125l-34.625 0zm6.59375 -17.406242l0 -10.5l24.5 0l0 10.5l-24.5 0z" fill-rule="nonzero"/><path fill="#ffffff" d="m326.1493 219.85942l0 -44.796875l20.15622 0q4.609375 0 8.1875 1.984375q3.59375 1.984375 5.640625 5.4375q2.046875 3.453125 2.046875 7.9375q0 4.671875 -2.046875 8.328125q-2.046875 3.640625 -5.640625 5.71875q-3.578125 2.078125 -8.1875 2.078125l-6.3437195 0l0 13.3125l-13.8125 0zm13.5625 -25.09375l4.0312195 0q1.21875 0 2.171875 -0.46875q0.96875 -0.484375 1.5 -1.375q0.546875 -0.90625 0.546875 -2.25q0 -1.34375 -0.546875 -2.171875q-0.53125 -0.828125 -1.5 -1.25q-0.953125 -0.421875 -2.171875 -0.421875l-4.0312195 0l0 7.9375zm30.149414 25.09375l0 -44.796875l20.984375 0q4.671875 0 8.3125 1.859375q3.65625 1.84375 5.703125 5.046875q2.046875 3.203125 2.046875 7.359375q0 4.671875 -2.046875 8.203125q-2.046875 3.515625 -5.703125 5.46875q-3.640625 1.953125 -8.3125 1.953125l-8.0625 0l0 14.90625l-12.921875 0zm23.484375 0l-11.390625 -20.21875l14.140625 -1.609375l12.671875 21.828125l-15.421875 0zm-10.5625 -24.515625l5.890625 0q1.59375 0 2.640625 -0.609375q1.0625 -0.609375 1.609375 -1.6875q0.546875 -1.09375 0.546875 -2.625q0 -1.40625 -0.546875 -2.390625q-0.546875 -1.0 -1.671875 -1.546875q-1.109375 -0.546875 -2.828125 -0.546875l-5.640625 0l0 9.40625zm53.311066 25.15625q-5.3125 0 -9.734375 -1.71875q-4.40625 -1.734375 -7.671875 -4.875q-3.265625 -3.140625 -5.03125 -7.421875q-1.75 -4.28125 -1.75 -9.34375q0 -5.125 1.75 -9.375q1.765625 -4.265625 5.03125 -7.390625q3.265625 -3.140625 7.671875 -4.859375q4.421875 -1.734375 9.671875 -1.734375q5.3125 0 9.6875 1.734375q4.390625 1.71875 7.65625 4.859375q3.265625 3.125 5.015625 7.390625q1.765625 4.25 1.765625 9.3125q0 5.125 -1.765625 9.40625q-1.75 4.28125 -5.015625 7.421875q-3.265625 3.140625 -7.65625 4.875q-4.375 1.71875 -9.625 1.71875zm-0.0625 -12.796875q2.171875 0 4.0 -0.765625q1.828125 -0.78125 3.203125 -2.21875q1.375 -1.4375 2.109375 -3.359375q0.734375 -1.921875 0.734375 -4.21875q0 -2.3125 -0.734375 -4.21875q-0.734375 -1.921875 -2.109375 -3.359375q-1.375 -1.453125 -3.203125 -2.21875q-1.828125 -0.765625 -4.0 -0.765625q-2.171875 0 -4.0 0.765625q-1.828125 0.765625 -3.203125 2.21875q-1.375 1.4375 -2.109375 3.359375q-0.734375 1.90625 -0.734375 4.21875q0 2.296875 0.734375 4.21875q0.734375 1.921875 2.109375 3.359375q1.375 1.4375 3.203125 2.21875q1.828125 0.765625 4.0 0.765625zm42.68152 12.796875q-2.6875 0 -5.0 -0.546875q-2.296875 -0.546875 -4.15625 -1.53125q-1.84375 -1.0 -3.28125 -2.5q-1.4375 -1.5 -2.53125 -3.421875l7.609375 -7.875q0.578125 0.828125 1.1875 1.546875q0.609375 0.703125 1.25 1.1875q0.640625 0.46875 1.375 0.765625q0.734375 0.28125 1.5 0.28125q1.03125 0 1.796875 -0.484375q0.765625 -0.484375 1.171875 -1.34375q0.421875 -0.859375 0.421875 -2.078125l0 -17.671875l-8.25 0l0 -11.765625l28.484375 0l0 11.765625l-6.921875 0l0 19.40625q0 3.453125 -1.15625 6.078125q-1.140625 2.625 -3.125 4.484375q-1.984375 1.84375 -4.640625 2.78125q-2.65625 0.921875 -5.734375 0.921875zm31.819794 -0.640625l0 -44.796875l33.46875 0l0 11.203125l-20.21875 0l0 22.390625l21.375 0l0 11.203125l-34.625 0zm6.59375 -17.40625l0 -10.5l24.5 0l0 10.5l-24.5 0zm58.17383 18.046875q-5.375 0 -9.890625 -1.71875q-4.515625 -1.734375 -7.8125 -4.84375q-3.296875 -3.109375 -5.09375 -7.390625q-1.78125 -4.28125 -1.78125 -9.40625q0 -5.125 1.8125 -9.40625q1.828125 -4.296875 5.15625 -7.390625q3.328125 -3.109375 7.90625 -4.828125q4.578125 -1.734375 10.078125 -1.734375q3.140625 0 6.171875 0.734375q3.046875 0.734375 5.765625 2.25q2.71875 1.5 4.96875 3.796875l-8.265625 9.671875q-0.890625 -1.09375 -2.140625 -1.984375q-1.25 -0.90625 -2.890625 -1.4375q-1.625 -0.546875 -3.734375 -0.546875q-2.171875 0 -4.125 0.734375q-1.953125 0.734375 -3.390625 2.140625q-1.4375 1.40625 -2.28125 3.453125q-0.828125 2.046875 -0.828125 4.734375q0 2.4375 0.828125 4.421875q0.84375 1.984375 2.375 3.390625q1.53125 1.40625 3.703125 2.171875q2.1875 0.765625 4.875 0.765625q1.921875 0 3.640625 -0.5625q1.734375 -0.578125 3.140625 -1.5q1.40625 -0.9375 2.4375 -2.09375l6.59375 10.375q-1.671875 1.78125 -4.421875 3.203125q-2.75 1.40625 -6.078125 2.203125q-3.328125 0.796875 -6.71875 0.796875zm33.72931 -0.640625l0 -33.03125l-13.828125 0l0 -11.765625l41.859375 0l0 11.765625l-14.21875 0l0 33.03125l-13.8125 0z" fill-rule="nonzero"/><path fill="#000000" fill-opacity="0.0" d="m123.30708 446.4882l713.38586 0l0 80.75589l-713.38586 0z" fill-rule="evenodd"/></g></svg>
