<svg xmlns="http://www.w3.org/2000/svg" viewBox="0 0 1091 149" xml:space="preserve"><path fill="#FFF" d="M1080.024 109c-.005 11-.163 21.503.065 31.997.082 3.768-1.34 4.948-4.868 5.084-5.432.21-9.005-2.484-12.22-6.467-23.542-29.169-47.164-58.273-70.761-87.397-.836-1.032-1.68-2.057-2.945-3.603-.262 1.476-.594 2.48-.596 3.483-.07 25.832-.276 51.666.053 77.493.046 3.611 2.695 7.213 4.249 10.77.73 1.672 1.722 3.229 2.886 5.374h-37.092c2.181-3.078 4.187-5.208 5.352-7.726 1.47-3.178 3.167-6.665 3.197-10.032.296-33.33.06-66.666.495-99.993.093-7.148-1.785-12.57-7.11-17.083-1.267-1.075-2.124-2.635-4.11-5.172 9.222 0 16.97-.165 24.7.151 1.399.057 2.952 1.899 4.037 3.238 23.809 29.387 47.56 58.82 71.327 88.239.412.509.88.97 1.728 1.899.222-1.126.472-1.803.471-2.479-.023-23.666-.198-47.333-.018-70.997.041-5.47-1.182-10.083-4.674-14.257-1.178-1.408-1.784-3.294-3.024-5.679h37.08c-.933 1.64-1.4 3.007-2.303 3.958-4.614 4.856-6.147 10.4-6.056 17.204.362 27.16.141 54.33.137 81.995M235.378 26.636c29.825 34.675 23.142 85.82-14.052 109.688-33.57 21.542-81.212 10.83-101.29-22.776-20.684-34.622-8.198-82.065 26.634-101.196 28.773-15.804 65.625-9.96 88.708 14.284m-25.294 6.74c-25.052-18.217-65.275-8.663-75.518 27.338-5.304 18.638-1.86 35.873 11.403 50.148 12.762 13.737 29.124 18.56 47.333 14.285 20.672-4.852 33.232-18.78 37.211-39.232 4.084-20.984-2.991-38.632-20.429-52.54m167.627 77.333c.003-6.438.003-12.413.003-19.045-5.593 0-10.988-.764-16.043.219-4.875.948-9.4 3.698-14.384 5.785V74.413h52.65c0 12.323-.973 24.544.278 36.532 1.208 11.582-3.916 17.922-12.758 23.891-36.26 24.482-88 12.294-106.522-25.935-19.842-40.955.123-89.183 41.072-101.562 24.626-7.445 47.405-3.478 68.025 12.02 4.83 3.63 4.702 4.175.802 8.978-3.744 4.61-7.348 9.333-10.929 13.898-3.463-3.612-6.143-7.647-9.87-10.072-14.707-9.567-30.546-10.325-46.156-2.912-26.338 12.508-35.815 46.69-20.828 72.97 13.801 24.203 47.917 32.097 71.752 16.773 3.269-2.102 2.854-4.884 2.908-8.286m54.028 5.281c-.009-29.648-.153-58.8.08-87.947.052-6.451-.854-12.15-5.328-17.026-1.154-1.258-1.858-2.929-3.244-5.183h38.345c-2.265 3.44-4.269 6.146-5.89 9.066-1.085 1.955-2.276 4.203-2.305 6.335-.176 12.99-.036 25.983.016 38.975.004.97.146 1.937.247 3.183h64.664v-11.34c-.001-7.996-.329-16.009.096-23.982.363-6.83-1.119-12.776-5.52-18.026-.815-.973-1.236-2.278-2.23-4.174h37.28c-.63 1.377-.865 2.616-1.597 3.377-5.77 6.003-6.411 13.237-6.343 21.183.271 31.646.158 63.297-.09 94.944-.046 5.961 1.057 11.132 4.958 15.687 1 1.168 1.588 2.69 2.668 4.578H510.18c1.327-2.262 2.05-4.073 3.263-5.452 3.6-4.092 4.932-8.652 4.807-14.159-.314-13.811-.104-27.635-.104-41.876h-64.817v25.803c-.001 3.498.212 7.013-.05 10.491-.605 8.037.145 15.605 6.005 21.858.6.64.695 1.756 1.222 3.189h-38.682c9.146-8.435 11.079-18.289 9.916-29.504m486.099-90.278c-15.787-.004-31.094-.004-46.695-.004v39.089C886.346 63.48 901.64 67.38 917 61.02v26.173c-1.59-.117-3.447.317-4.416-.419-5.355-4.063-11.489-2.61-17.354-2.747-7.957-.185-15.921-.046-24.089-.046v42.172c6.53 0 12.807.005 19.085 0 8.83-.008 17.681-.384 26.487.086 6.323.338 11.324-1.561 15.79-5.798 1.299-1.233 3.081-1.956 4.878-3.057v28.378h-99.346c2.525-3.123 4.2-5.472 6.157-7.555 3.261-3.471 4.57-7.389 4.552-12.213-.123-32.658-.23-65.32.14-97.974.077-6.88-1.794-12.278-6.357-17.097-1.158-1.223-1.995-2.749-3.523-4.899h95.647v26.133c-6.697.731-9.168-9.048-16.812-6.447m-294.654-9.528c1.296-2.932 2.058-5.798 3.698-8.016 1.518-2.052 4.074-4.835 5.995-4.703 2.31.157 5.457 2.595 6.47 4.843 7.168 15.913 14.007 31.979 20.71 48.096 9.067 21.796 17.63 43.806 27.026 65.458 3.05 7.032 8.025 13.231 12.14 19.798.656 1.047 1.42 2.026 2.674 3.8h-37.433c.364-1.412.367-2.829 1.034-3.782 3.482-4.983 2.7-9.813.24-14.95-2.424-5.065-2.993-12.45-6.879-14.996-4.144-2.715-11.22-1.077-17.017-1.117-10.992-.076-21.986.112-32.976-.045-2.963-.043-4.577.754-5.412 3.703-.904 3.188-2.178 6.287-3.493 9.338-2.78 6.452-5.996 12.83-.344 19.44.341.398.139 1.261.22 2.3-1.008.194-1.907.514-2.808.517-10.326.026-20.653.04-30.979-.06-1.164-.01-2.322-.744-3.483-1.143.517-1.147.716-2.725 1.598-3.373 9.563-7.013 13.223-17.729 17.6-27.935 13.83-32.243 27.522-64.545 41.419-97.173m-1.58 75.504h30.046l-19.465-49.822-18.827 49.821zm133.153 54.665a2854 2854 0 0 1-15.79-36.982c-12.147-28.974-24.12-58.022-36.508-86.893-2.432-5.668-6.415-10.67-9.926-16.374h38.878c-.887 1.95-1.412 3.807-2.464 5.29-2.963 4.173-3.232 8.24-1.299 13.085 9.738 24.406 19.208 48.92 28.769 73.397.95 2.435 1.884 4.877 3.159 8.18 4.956-12.538 9.6-24.255 14.22-35.98 5.916-15.013 11.644-30.101 17.805-45.011 2.324-5.625 2.258-10.533-1.37-15.426-.638-.86-.852-2.036-1.476-3.603h37.57c-.928 1.613-1.605 2.876-2.361 4.09-2.878 4.621-6.469 8.935-8.565 13.884-15.964 37.682-31.636 75.486-47.405 113.25-.705 1.688-1.43 3.37-2.22 5.02-2.685 5.6-4.404 6.28-11.017 4.073M51.002 84.133c-5.656-.003-10.813-.003-16.654-.003 0 2.263-.006 4.36 0 6.458.038 11.658.285 23.32.03 34.973-.127 5.803 1.23 10.784 4.94 15.23.974 1.169 1.468 2.739 2.478 4.697H3.451c1.867-2.593 3.024-4.5 4.472-6.15 3.462-3.948 4.81-8.354 4.782-13.693-.163-32.31-.198-64.622.103-96.93.063-6.822-.876-12.798-5.674-17.872C6.06 9.708 5.382 8.2 4.018 6.083h93.8v27.804c-2.473-1.456-4.766-2.234-6.239-3.788-3.349-3.533-7.153-4.697-11.985-4.612-14.786.26-29.58.094-44.685.094v39.32c14.919-1.242 30.006 2.641 44.991-3.684v25.025a8420 8420 0 0 0-28.898-2.11"/></svg>
