<svg version="1.1" viewBox="180.0 460.0 602.0 50.0" fill="none" stroke="none" stroke-linecap="square" stroke-miterlimit="10" xmlns:xlink="http://www.w3.org/1999/xlink" xmlns="http://www.w3.org/2000/svg"><path fill="#ffffff" d="m184.36504 467.97443l-4.46875 4.546875l0 22.609375l4.328125 6.4375l18.859375 0l0 -5.421875l-15.984375 0l-1.390625 -2.109375l0 -6.71875l11.09375 0l0 -5.4375l-11.09375 0l0 -7.53125l0.859375 -0.953125l16.515625 0l0 -5.421875l-18.71875 0zm24.44069 7.140625l0 5.375l3.453125 0l1.390625 2.0625l0 13.640625l-4.84375 0l0 5.375l17.421875 0l0 -5.375l-6.8125 0l0 -14.0625l1.53125 -1.640625l5.75 0l1.640625 2.546875l4.46875 -3.015625l-3.265625 -4.90625l-10.90625 0l-2.34375 2.453125l-4.171875 -2.453125l-3.3125 0zm31.237564 -0.90625l0 5.234375l5.328125 0l1.4375 2.109375l0 14.78125l-8.78125 0l0 5.234375l23.14064 0l0 -5.234375l-8.781265 0l0 -15.796875l-4.28125 -6.328125l-8.0625 0zm6.203125 -5.28125l0 -6.71875l6.71875 0l0 6.71875l-6.71875 0zm25.09694 6.09375l14.40625 0l3.984375 5.90625l-3.75 3.890625l-2.875 -4.21875l-9.171875 0l-1.0625 1.09375l0 12.71875l1.5 2.21875l9.203125 0l3.265625 -3.3125l2.78125 4.171875l-3.921875 4.078125l-14.40625 0l-4.21875 -6.28125l0 -15.84375l4.265625 -4.421875zm58.178253 -7.046875l14.390625 0l3.890625 5.84375l-3.828125 4.03125l-2.9375 -4.40625l-9.3125 0l-0.859375 0.953125l0 19.640625l1.390625 2.109375l9.21875 0l3.40625 -3.40625l3.015625 4.515625l-4.125 4.3125l-14.390625 0l-4.328125 -6.4375l0 -22.65625l4.46875 -4.5zm41.034454 7.140625l0 20.109375l-0.859375 0.921875l-9.265625 0l-1.390625 -2.0625l0 -18.96875l-5.8125 0l0 20.015625l4.375 6.4375l10.359375 0l2.6875 -1.578125l0 1.578125l5.71875 0l0 -26.453125l-5.8125 0zm11.471924 0l0 26.453125l5.8125 0l0 -20.0625l0.859375 -1.015625l9.3125 0l1.390625 2.0625l0 19.015625l5.8125 0l0 -20.0625l-4.3125 -6.390625l-10.421875 0l-2.640625 1.59375l0 -1.59375l-5.8125 0zm63.022003 -9.109375l-4.453125 4.703125l0 3.640625l4.453125 6.578125l-8.34375 8.640625l0 6.8125l3.546875 5.1875l13.828125 0l2.828125 -3.03125l2.0625 3.03125l6.578125 0l-4.796875 -6.90625l4.9375 -5.046875l0 -6.234375l-7.71875 0l0 5.375l0.859375 0l-1.15625 1.296875l-5.65625 -8.5l7.625 -7.921875l0 -3.078125l-3.109375 -4.546875l-11.484375 0zm1.015625 6.8125l1.34375 -1.390625l6.328125 0l0.203125 0.328125l-5.046875 5.1875l-2.828125 -4.125zm-3.546875 22.46875l0 -3.9375l5.5625 -5.8125l5.765625 8.5l-2.015625 2.109375l-8.75 0l-0.5625 -0.859375zm59.225098 -27.3125l-4.515625 4.609375l0 22.546875l4.375 6.4375l12.328125 0l1.6875 2.296875l4.40625 -3.015625l-6.71875 -9.984375l-4.40625 3.078125l1.484375 2.203125l-5.953125 0l-1.390625 -2.109375l0 -19.734375l0.8125 -0.90625l9.3125 0l1.390625 2.015625l0 17.125l5.8125 -6.046875l0 -12.09375l-4.375 -6.421875l-14.25 0zm41.61255 7.140625l0 20.109375l-0.859375 0.921875l-9.265625 0l-1.390625 -2.0625l0 -18.96875l-5.8125 0l0 20.015625l4.375 6.4375l10.359375 0l2.6875 -1.578125l0 1.578125l5.71875 0l0 -26.453125l-5.8125 0zm15.268799 -0.09375l0 5.328125l13.578125 0l0 4.171875l-9.6875 0l-7.734375 8.078125l0 2.53125l4.328125 6.4375l10.453125 0l2.640625 -1.578125l0 1.578125l5.8125 0l0 -21.59375l-3.359375 -4.953125l-16.03125 0zm2.15625 19.0625l0 -0.09375l3.890625 -3.984375l7.34375 0l0 6.140625l-10.3125 0l-0.921875 -2.0625zm22.846924 -18.96875l0 26.453125l5.8125 0l0 -20.0625l0.859375 -1.015625l9.3125 0l1.390625 2.0625l0 19.015625l5.8125 0l0 -20.0625l-4.3125 -6.390625l-10.421875 0l-2.640625 1.59375l0 -1.59375l-5.8125 0zm37.784424 25.25l7.96875 0l0.234375 0.34375l0 2.546875l-3.265625 3.15625l-5.65625 0l-1.203125 -1.765625l0 -2.546875l1.921875 -1.734375zm-2.40625 -18.09375l1.53125 -1.625l7.734375 0l1.390625 1.96875l0 2.390625l-3.125 1.921875l-7.53125 0l0 -4.65625zm8.0625 10.125l8.40625 -5.1875l0 -12.046875l-5.8125 0l0 1.546875l-2.59375 -1.546875l-8.78125 0l-5.046875 5.28125l0 9.125l1.5 0.953125l-2.453125 2.359375l3.59375 5.46875l-2.4375 2.453125l0 5.375l4.453125 5.703125l10.765625 0l7.0 -6.375l0 -5.375l-3.359375 -5.234375l-12.328125 0l-0.734375 -1.296875l1.15625 -1.203125l6.671875 0zm42.912598 -24.421875l0 33.59375l5.8125 0l0 -14.203125l13.046875 0l4.375 -4.46875l0 -8.5l-4.265625 -6.421875l-18.96875 0zm5.8125 5.421875l10.21875 0l1.390625 2.109375l0 5.609375l-0.90625 0.921875l-8.015625 0l-2.6875 1.578125l0 -10.21875zm23.034424 -8.734375l5.8125 0l0 12.046875l2.59375 -1.59375l10.3125 0l4.46875 6.296875l0 20.15625l-5.8125 0l0 -19.0625l-1.390625 -2.015625l-9.21875 0l-0.953125 0.921875l0 20.15625l-5.8125 0l0 -36.90625zm32.596924 10.359375l0 5.328125l13.578125 0l0 4.171875l-9.6875 0l-7.734375 8.078125l0 2.53125l4.328125 6.4375l10.453125 0l2.640625 -1.578125l0 1.578125l5.8125 0l0 -21.59375l-3.359375 -4.953125l-16.03125 0zm2.15625 19.0625l0 -0.09375l3.890625 -3.984375l7.34375 0l0 6.140625l-10.3125 0l-0.921875 -2.0625zm21.893799 -18.96875l0 26.453125l5.8125 0l0 -20.0625l0.859375 -1.015625l1.625 0l1.390625 2.0625l0 5.71875l5.8125 0l0 -6.765625l0.859375 -1.015625l1.59375 0l1.34375 2.0625l0 19.015625l5.796875 0l0 -20.0625l-4.3125 -6.390625l-2.6875 0l-4.890625 2.984375l-2.015625 -2.984375l-2.796875 0l-2.578125 1.59375l0 -1.59375l-5.8125 0z" fill-rule="nonzero"/></svg>
